<svg width="130" height="24" fill="none" xmlns="http://www.w3.org/2000/svg"><path d="M28.004 11.521c0-.841.15-1.67.447-2.486a6.9 6.9 0 0 1 1.34-2.214 6.735 6.735 0 0 1 2.136-1.573c.842-.401 1.8-.602 2.875-.602 1.269 0 2.362.279 3.282.835.932.557 1.625 1.282 2.078 2.175l-2.059 1.418a3.374 3.374 0 0 0-.66-.97 3.201 3.201 0 0 0-.835-.642 3.484 3.484 0 0 0-.932-.33 4.07 4.07 0 0 0-.952-.116c-.673 0-1.262.136-1.767.407a3.955 3.955 0 0 0-1.243 1.069c-.324.427-.57.919-.738 1.476a5.44 5.44 0 0 0 .039 3.399c.194.556.466 1.048.815 1.475.363.427.79.77 1.282 1.03a3.565 3.565 0 0 0 1.65.388c.312 0 .635-.039.972-.117.337-.077.654-.2.951-.369a3.69 3.69 0 0 0 .855-.64c.259-.273.466-.596.621-.972l2.195 1.263c-.22.518-.537.977-.952 1.379-.401.388-.86.718-1.379.99a6.86 6.86 0 0 1-1.63.622 7.184 7.184 0 0 1-1.71.213c-.984 0-1.884-.207-2.7-.621a7.232 7.232 0 0 1-2.116-1.612 7.968 7.968 0 0 1-1.38-2.273 7.293 7.293 0 0 1-.485-2.602ZM46.6 18.707c-.828 0-1.572-.143-2.233-.427a5.2 5.2 0 0 1-1.69-1.146 5.295 5.295 0 0 1-1.048-1.69 5.484 5.484 0 0 1-.37-2c0-.712.124-1.386.37-2.02a5.073 5.073 0 0 1 1.049-1.67 5.052 5.052 0 0 1 1.69-1.165c.66-.285 1.404-.428 2.233-.428.828 0 1.566.143 2.214.428.66.284 1.217.673 1.67 1.165a4.919 4.919 0 0 1 1.068 1.67c.246.635.369 1.308.369 2.02 0 .699-.123 1.366-.37 2a5.295 5.295 0 0 1-1.048 1.69c-.453.479-1.01.86-1.67 1.146-.66.284-1.405.427-2.233.427Zm-2.66-5.263c0 .453.065.867.194 1.243.143.362.33.68.563.951.246.272.531.486.855.641.324.143.673.214 1.049.214.375 0 .725-.071 1.048-.214.324-.155.602-.369.835-.64.246-.272.434-.596.564-.972a3.48 3.48 0 0 0 .213-1.243c0-.44-.071-.848-.213-1.223-.13-.376-.318-.7-.564-.971a2.315 2.315 0 0 0-.835-.622 2.391 2.391 0 0 0-1.048-.233c-.376 0-.725.078-1.05.233a2.746 2.746 0 0 0-.854.641c-.233.272-.42.596-.563.971a3.73 3.73 0 0 0-.194 1.224ZM69.487 18.513h-2.602v-5.71c0-.816-.143-1.411-.428-1.787-.272-.375-.654-.563-1.146-.563-.518 0-1.003.2-1.456.602-.453.389-.777.9-.971 1.534v5.924H60.28v-5.71c0-.816-.142-1.411-.427-1.787-.272-.375-.654-.563-1.146-.563-.505 0-.99.194-1.456.583-.453.388-.777.9-.971 1.534v5.943h-2.603V8.336h2.35v1.884a3.837 3.837 0 0 1 1.535-1.515c.66-.362 1.41-.544 2.252-.544.855 0 1.515.208 1.981.622.466.414.764.926.894 1.534.414-.7.938-1.23 1.573-1.592.634-.376 1.36-.564 2.175-.564.621 0 1.133.117 1.534.35.401.233.712.537.932.913.22.375.37.803.447 1.282.09.479.136.964.136 1.456v6.35ZM87.561 18.513h-2.602v-5.71c0-.816-.143-1.411-.428-1.787-.272-.375-.654-.563-1.146-.563-.517 0-1.003.2-1.456.602-.453.389-.777.9-.971 1.534v5.924h-2.602v-5.71c0-.816-.143-1.411-.428-1.787-.272-.375-.653-.563-1.145-.563-.505 0-.991.194-1.457.583-.453.388-.777.9-.971 1.534v5.943h-2.603V8.336h2.35v1.884a3.837 3.837 0 0 1 1.535-1.515c.66-.362 1.41-.544 2.252-.544.855 0 1.515.208 1.981.622.466.414.764.926.894 1.534.414-.7.938-1.23 1.573-1.592.634-.376 1.36-.564 2.175-.564.621 0 1.133.117 1.534.35.401.233.712.537.932.913.22.375.37.803.447 1.282.09.479.136.964.136 1.456v6.35ZM94.546 18.707c-.816 0-1.554-.136-2.214-.408a5.2 5.2 0 0 1-1.69-1.146 5.173 5.173 0 0 1-1.087-1.67 5.484 5.484 0 0 1-.37-2c0-.725.124-1.405.37-2.04a4.877 4.877 0 0 1 1.068-1.69 5.052 5.052 0 0 1 1.69-1.164c.673-.285 1.424-.428 2.252-.428.829 0 1.567.143 2.214.428a4.98 4.98 0 0 1 1.67 1.145 4.684 4.684 0 0 1 1.05 1.67c.245.635.368 1.295.368 1.982 0 .168-.006.33-.02.485 0 .155-.012.285-.038.388h-7.865c.038.402.135.758.29 1.069a2.621 2.621 0 0 0 1.437 1.301c.312.116.635.175.972.175.518 0 1.003-.123 1.457-.37.466-.258.783-.595.951-1.01l2.233.622c-.375.777-.977 1.418-1.806 1.923-.815.492-1.793.738-2.932.738Zm2.641-6.137c-.065-.764-.35-1.373-.854-1.826-.492-.466-1.094-.699-1.806-.699-.35 0-.68.065-.991.194a2.448 2.448 0 0 0-.796.505c-.233.22-.427.486-.583.797-.142.31-.226.653-.252 1.029h5.282ZM107.512 10.589c-.79.013-1.496.168-2.117.466-.622.285-1.068.719-1.34 1.301v6.157h-2.602V8.336h2.388v2.175c.182-.35.395-.66.641-.932.246-.285.512-.53.796-.738.285-.207.57-.362.855-.466.298-.117.583-.175.854-.175h.311c.078 0 .149.007.214.02v2.369ZM107.81 13.424c0-.712.123-1.385.369-2.02a4.92 4.92 0 0 1 1.068-1.67 5.193 5.193 0 0 1 1.69-1.145c.66-.285 1.404-.428 2.233-.428 1.113 0 2.059.24 2.835.719.79.479 1.379 1.107 1.768 1.884l-2.544.777a2.218 2.218 0 0 0-.874-.855 2.385 2.385 0 0 0-1.204-.31c-.376 0-.725.077-1.049.232a2.5 2.5 0 0 0-.855.622 3 3 0 0 0-.563.951c-.129.376-.194.79-.194 1.243 0 .454.071.868.214 1.243.142.376.33.7.563.971.246.272.531.486.854.641a2.53 2.53 0 0 0 1.03.214c.466 0 .893-.117 1.281-.35.402-.233.68-.518.835-.854l2.545.777c-.35.776-.926 1.41-1.729 1.903-.803.492-1.767.738-2.894.738-.828 0-1.573-.143-2.233-.427a5.214 5.214 0 0 1-1.69-1.146 5.402 5.402 0 0 1-1.087-1.69 5.638 5.638 0 0 1-.369-2.02ZM124.037 18.707c-.815 0-1.553-.136-2.214-.408a5.2 5.2 0 0 1-1.689-1.146 5.177 5.177 0 0 1-1.088-1.67 5.484 5.484 0 0 1-.369-2c0-.725.123-1.405.369-2.04a4.878 4.878 0 0 1 1.068-1.69 5.056 5.056 0 0 1 1.69-1.164c.673-.285 1.424-.428 2.253-.428.828 0 1.566.143 2.214.428.66.284 1.217.666 1.67 1.145a4.698 4.698 0 0 1 1.049 1.67c.246.635.369 1.295.369 1.982 0 .168-.007.33-.02.485 0 .155-.013.285-.039.388h-7.865c.039.402.136.758.291 1.069a2.63 2.63 0 0 0 1.437 1.301c.311.116.635.175.971.175.518 0 1.004-.123 1.457-.37.466-.258.783-.595.952-1.01l2.233.622c-.376.777-.978 1.418-1.806 1.923-.816.492-1.793.738-2.933.738Zm2.641-6.137c-.064-.764-.349-1.373-.854-1.826-.492-.466-1.094-.699-1.806-.699-.35 0-.68.065-.991.194a2.455 2.455 0 0 0-.796.505c-.233.22-.427.486-.582.797-.143.31-.227.653-.253 1.029h5.282Z" fill="#000"/><rect y="23.82" width="23.82" height="23.82" rx="8" transform="rotate(-90 0 23.82)" fill="#0500FF"/><path d="M5.605 11.793c0-.843.143-1.673.43-2.49.3-.831.73-1.57 1.293-2.22a6.518 6.518 0 0 1 2.06-1.576c.811-.402 1.735-.603 2.771-.603 1.223 0 2.278.279 3.165.837.899.558 1.567 1.284 2.004 2.18l-1.986 1.42a3.388 3.388 0 0 0-.636-.973 3.102 3.102 0 0 0-1.704-.973 3.784 3.784 0 0 0-.918-.117c-.65 0-1.217.137-1.704.409-.474.272-.874.63-1.198 1.07-.313.428-.55.921-.712 1.48a5.645 5.645 0 0 0 .037 3.406c.188.557.45 1.05.787 1.478.35.428.761.772 1.236 1.031.487.26 1.017.39 1.592.39.3 0 .611-.04.936-.117a3.34 3.34 0 0 0 .918-.37c.3-.168.574-.383.823-.642.25-.273.45-.597.6-.973l2.116 1.265c-.212.519-.518.98-.918 1.382-.387.389-.83.72-1.33.992a6.466 6.466 0 0 1-1.572.623 6.68 6.68 0 0 1-1.648.214c-.95 0-1.817-.208-2.603-.623a7.01 7.01 0 0 1-2.042-1.615 8.047 8.047 0 0 1-1.33-2.277 7.563 7.563 0 0 1-.467-2.608Z" fill="#F9FAFB"/></svg>